<?xml version="1.0" encoding="UTF-8"?>
<svg xmlns="http://www.w3.org/2000/svg" xmlns:xlink="http://www.w3.org/1999/xlink" width="150px" height="150px" viewBox="0 0 750 750" version="1.1">
<defs>
<linearGradient id="linear0" gradientUnits="userSpaceOnUse" x1="146.446503" y1="853.553528" x2="853.553528" y2="146.446503" gradientTransform="matrix(0.75,0,0,0.75,0,0)">
<stop offset="0" style="stop-color:rgb(100%,83.529412%,12.941176%);stop-opacity:1;"/>
<stop offset="0.0551048" style="stop-color:rgb(100%,81.568627%,12.54902%);stop-opacity:1;"/>
<stop offset="0.1241" style="stop-color:rgb(99.607843%,75.294118%,11.764706%);stop-opacity:1;"/>
<stop offset="0.2004" style="stop-color:rgb(98.823529%,65.490196%,10.588235%);stop-opacity:1;"/>
<stop offset="0.2821" style="stop-color:rgb(98.039216%,51.372549%,8.627451%);stop-opacity:1;"/>
<stop offset="0.3681" style="stop-color:rgb(97.254902%,33.333333%,6.27451%);stop-opacity:1;"/>
<stop offset="0.4563" style="stop-color:rgb(96.078431%,11.764706%,3.529412%);stop-opacity:1;"/>
<stop offset="0.5" style="stop-color:rgb(95.294118%,0%,1.960784%);stop-opacity:1;"/>
<stop offset="0.5035" style="stop-color:rgb(94.901961%,0%,2.745098%);stop-opacity:1;"/>
<stop offset="0.5966" style="stop-color:rgb(88.235294%,0%,23.137255%);stop-opacity:1;"/>
<stop offset="0.6879" style="stop-color:rgb(82.745098%,0%,40.392157%);stop-opacity:1;"/>
<stop offset="0.7757" style="stop-color:rgb(78.039216%,0%,53.333333%);stop-opacity:1;"/>
<stop offset="0.8589" style="stop-color:rgb(74.901961%,0%,62.745098%);stop-opacity:1;"/>
<stop offset="0.9357" style="stop-color:rgb(73.333333%,0%,68.627451%);stop-opacity:1;"/>
<stop offset="1" style="stop-color:rgb(72.54902%,0%,70.588235%);stop-opacity:1;"/>
</linearGradient>
</defs>
<g id="surface1">
<path style=" stroke:none;fill-rule:nonzero;fill:url(#linear0);" d="M 375 750 C 167.925781 750 0 582.074219 0 375 C 0 167.925781 167.925781 0 375 0 C 582.074219 0 750 167.925781 750 375 C 750 582.074219 582.074219 750 375 750 Z M 375 750 "/>
<path style=" stroke:none;fill-rule:nonzero;fill:rgb(100%,100%,100%);fill-opacity:1;" d="M 375 165.148438 C 443.324219 165.148438 451.425781 165.375 478.425781 166.648438 C 503.398438 167.773438 516.976562 171.976562 525.976562 175.5 C 537.898438 180.148438 546.449219 185.699219 555.375 194.625 C 564.300781 203.550781 569.851562 212.101562 574.5 224.023438 C 578.023438 233.023438 582.148438 246.601562 583.351562 271.574219 C 584.550781 298.574219 584.851562 306.675781 584.851562 375 C 584.851562 443.324219 584.625 451.425781 583.351562 478.425781 C 582.226562 503.398438 578.023438 516.976562 574.5 525.976562 C 569.851562 537.898438 564.300781 546.449219 555.375 555.375 C 546.449219 564.300781 537.898438 569.851562 525.976562 574.5 C 516.976562 578.023438 503.398438 582.148438 478.425781 583.351562 C 451.425781 584.550781 443.324219 584.851562 375 584.851562 C 306.675781 584.851562 298.574219 584.625 271.574219 583.351562 C 246.601562 582.226562 233.023438 578.023438 224.023438 574.5 C 212.101562 569.851562 203.550781 564.300781 194.625 555.375 C 185.699219 546.449219 180.148438 537.898438 175.5 525.976562 C 171.976562 516.976562 167.851562 503.398438 166.648438 478.425781 C 165.449219 451.425781 165.148438 443.324219 165.148438 375 C 165.148438 306.675781 165.375 298.574219 166.648438 271.574219 C 167.773438 246.601562 171.976562 233.023438 175.5 224.023438 C 180.148438 212.101562 185.699219 203.550781 194.625 194.625 C 203.550781 185.699219 212.101562 180.148438 224.023438 175.5 C 233.023438 171.976562 246.601562 167.851562 271.574219 166.648438 C 298.574219 165.375 306.675781 165.148438 375 165.148438 M 375 119.023438 C 305.476562 119.023438 296.773438 119.324219 269.476562 120.601562 C 242.25 121.875 223.648438 126.148438 207.300781 132.523438 C 190.5 138.976562 176.175781 147.75 162 162 C 147.75 176.25 139.050781 190.5 132.449219 207.375 C 126.148438 223.648438 121.800781 242.25 120.523438 269.550781 C 119.25 296.851562 118.949219 305.550781 118.949219 375.074219 C 118.949219 444.601562 119.25 453.300781 120.523438 480.601562 C 121.800781 507.824219 126.074219 526.425781 132.449219 542.773438 C 138.976562 559.5 147.75 573.824219 162 588 C 176.25 602.25 190.5 610.949219 207.375 617.550781 C 223.648438 623.851562 242.25 628.199219 269.550781 629.476562 C 296.851562 630.75 305.550781 631.050781 375.074219 631.050781 C 444.601562 631.050781 453.300781 630.75 480.601562 629.476562 C 507.824219 628.199219 526.425781 623.925781 542.773438 617.550781 C 559.5 611.023438 573.824219 602.25 588 588 C 602.25 573.75 610.949219 559.5 617.550781 542.625 C 623.851562 526.351562 628.199219 507.75 629.476562 480.449219 C 630.75 453.148438 631.050781 444.449219 631.050781 374.925781 C 631.050781 305.398438 630.75 296.699219 629.476562 269.398438 C 628.199219 242.175781 623.925781 223.574219 617.550781 207.226562 C 611.023438 190.5 602.25 176.175781 588 162 C 573.75 147.75 559.5 139.050781 542.625 132.449219 C 526.351562 126.148438 507.75 121.800781 480.449219 120.523438 C 453.226562 119.324219 444.523438 119.023438 375 119.023438 Z M 375 119.023438 "/>
<path style=" stroke:none;fill-rule:nonzero;fill:rgb(100%,100%,100%);fill-opacity:1;" d="M 375 243.523438 C 302.398438 243.523438 243.523438 302.398438 243.523438 375 C 243.523438 447.601562 302.398438 506.476562 375 506.476562 C 447.601562 506.476562 506.476562 447.601562 506.476562 375 C 506.476562 302.398438 447.601562 243.523438 375 243.523438 Z M 375 460.351562 C 327.898438 460.351562 289.648438 422.175781 289.648438 375 C 289.648438 327.824219 327.898438 289.648438 375 289.648438 C 422.101562 289.648438 460.351562 327.824219 460.351562 375 C 460.351562 422.175781 422.101562 460.351562 375 460.351562 Z M 375 460.351562 "/>
<path style=" stroke:none;fill-rule:nonzero;fill:rgb(100%,100%,100%);fill-opacity:1;" d="M 542.398438 238.351562 C 542.398438 221.367188 528.632812 207.601562 511.648438 207.601562 C 494.667969 207.601562 480.898438 221.367188 480.898438 238.351562 C 480.898438 255.332031 494.667969 269.101562 511.648438 269.101562 C 528.632812 269.101562 542.398438 255.332031 542.398438 238.351562 Z M 542.398438 238.351562 "/>
</g>
</svg>
