<?xml version="1.0" encoding="UTF-8"?>
<svg xmlns="http://www.w3.org/2000/svg" xmlns:xlink="http://www.w3.org/1999/xlink" width="150px" height="150px" viewBox="0 0 750 750" version="1.1">
<g id="surface1">
<path style=" stroke:none;fill-rule:nonzero;fill:rgb(0%,47.058824%,70.980394%);fill-opacity:1;" d="M 375 750 C 167.925781 750 0 582.074219 0 375 C 0 167.925781 167.925781 0 375 0 C 582.074219 0 750 167.925781 750 375 C 750 582.074219 582.074219 750 375 750 Z M 375 750 "/>
<path style=" stroke:none;fill-rule:nonzero;fill:rgb(100%,100%,100%);fill-opacity:1;" d="M 138.148438 290.476562 L 237.824219 290.476562 L 237.824219 611.25 L 138.148438 611.25 Z M 188.023438 131.023438 C 219.898438 131.023438 245.773438 156.898438 245.773438 188.851562 C 245.773438 220.800781 219.898438 246.675781 188.023438 246.675781 C 156.074219 246.675781 130.199219 220.800781 130.199219 188.851562 C 130.125 156.976562 156 131.023438 188.023438 131.023438 "/>
<path style=" stroke:none;fill-rule:nonzero;fill:rgb(100%,100%,100%);fill-opacity:1;" d="M 300.375 290.476562 L 396 290.476562 L 396 334.273438 L 397.351562 334.273438 C 410.625 309.074219 443.101562 282.449219 491.699219 282.449219 C 592.648438 282.449219 611.324219 348.898438 611.324219 435.226562 L 611.324219 611.25 L 511.648438 611.25 L 511.648438 455.324219 C 511.648438 418.050781 510.976562 370.273438 459.824219 370.273438 C 407.925781 370.273438 399.976562 410.773438 399.976562 452.625 L 399.976562 611.324219 L 300.375 611.324219 Z M 300.375 290.476562 "/>
</g>
</svg>
